<svg width="96" height="97" viewBox="0 0 96 97" fill="none" xmlns="http://www.w3.org/2000/svg">
<path d="M64.6453 16.6244C66.5914 13.8774 70.3959 13.2281 73.1429 15.1742C75.89 17.1203 76.5392 20.9248 74.5931 23.6719L38.8249 74.1607C36.8788 76.9077 33.0742 77.557 30.3272 75.6109C27.5802 73.6648 26.9309 69.8603 28.877 67.1133L64.6453 16.6244Z" fill="#CE6767"/>
<path d="M65.4261 17.5955C66.2853 16.3828 67.9649 16.0962 69.1776 16.9553C70.3904 17.8145 70.677 19.4941 69.8178 20.7068L49.5557 49.3079C48.6965 50.5207 47.0169 50.8073 45.8042 49.9482C44.5915 49.089 44.3048 47.4094 45.164 46.1967L65.4261 17.5955Z" fill="#E08181"/>
<path fill-rule="evenodd" clip-rule="evenodd" d="M73.7122 21.9081C74.0143 22.3704 73.8844 22.9901 73.422 23.2922C71.6192 24.47 68.4268 25.3848 63.9853 24.7577C63.4384 24.6805 63.0577 24.1746 63.1349 23.6278C63.2121 23.0809 63.718 22.7002 64.2648 22.7774C68.3233 23.3503 71.0059 22.4817 72.3281 21.6179C72.7905 21.3158 73.4101 21.4457 73.7122 21.9081Z" fill="#983232"/>
<path fill-rule="evenodd" clip-rule="evenodd" d="M70.431 26.7831C70.733 27.2454 70.6031 27.8651 70.1407 28.1672C69.1719 28.8002 67.6194 29.2399 65.9735 29.4355C64.2998 29.6344 62.387 29.5981 60.6373 29.1699C60.1009 29.0386 59.7724 28.4973 59.9037 27.9609C60.035 27.4244 60.5763 27.0959 61.1128 27.2272C62.5819 27.5868 64.2471 27.6266 65.7375 27.4495C67.2557 27.2691 68.4532 26.8807 69.0469 26.4929C69.5092 26.1908 70.1289 26.3207 70.431 26.7831Z" fill="#983232"/>
<path fill-rule="evenodd" clip-rule="evenodd" d="M67.1185 31.2831C67.4205 31.7454 67.2906 32.3651 66.8282 32.6672C65.9256 33.2569 64.4545 33.8757 62.8034 34.2297C61.1496 34.5843 59.2116 34.6957 57.4054 34.1644C56.8755 34.0086 56.5723 33.4527 56.7282 32.9229C56.884 32.393 57.4399 32.0898 57.9697 32.2457C59.351 32.6519 60.9286 32.5862 62.3842 32.2741C63.8425 31.9615 65.0745 31.424 65.7343 30.9929C66.1967 30.6908 66.8164 30.8207 67.1185 31.2831Z" fill="#983232"/>
<path fill-rule="evenodd" clip-rule="evenodd" d="M63.1185 36.8768C63.4205 37.3392 63.2906 37.9589 62.8282 38.261C61.8248 38.9165 60.1967 39.2652 58.5655 39.3659C56.8951 39.4689 55.0209 39.324 53.4273 38.8384C52.899 38.6774 52.6012 38.1186 52.7622 37.5903C52.9232 37.062 53.482 36.7642 54.0103 36.9252C55.323 37.3253 56.9488 37.4618 58.4424 37.3697C59.9753 37.2751 61.1753 36.9519 61.7344 36.5866C62.1967 36.2846 62.8164 36.4145 63.1185 36.8768Z" fill="#983232"/>
<path fill-rule="evenodd" clip-rule="evenodd" d="M66.9909 18.6221C67.4509 18.9277 67.5761 19.5484 67.2705 20.0084L61.333 28.9459C61.0274 29.4059 60.4067 29.5311 59.9467 29.2255C59.4867 28.9199 59.3615 28.2992 59.6671 27.8392L65.6046 18.9017C65.9102 18.4417 66.5309 18.3165 66.9909 18.6221Z" fill="#FBABAB"/>
<path d="M38.8312 37.9097C41.3853 34.3044 46.3784 33.4523 49.9837 36.0064L61.6411 44.265C65.2464 46.8191 66.0985 51.8122 63.5444 55.4175L41.3535 86.7411C39.4812 89.3839 36.1932 90.6524 33.1125 89.6527C29.8769 88.6029 25.8198 87.0197 23.125 85.0175C20.7741 83.2709 18.3636 80.3908 16.5489 77.9604C14.6279 75.3876 14.7521 71.8987 16.6081 69.2787L38.8312 37.9097Z" fill="#F4CE6C"/>
<path d="M50.5835 45.8208C51.8605 44.0182 54.3571 43.5921 56.1597 44.8692L60.9567 48.2675C62.7593 49.5446 63.1853 52.0411 61.9083 53.8437L38.8848 86.3426C38.1353 87.4005 36.9188 88.0371 35.6263 87.9345C33.8448 87.793 31.3265 87.4402 29.8176 86.5606C26.7686 84.7831 26.3165 82.1876 26.3051 80.859C26.3003 80.2945 26.5339 79.7681 26.8602 79.3074L50.5835 45.8208Z" fill="#DFB64E"/>
<path fill-rule="evenodd" clip-rule="evenodd" d="M47.0166 38.7504C47.9235 39.3808 48.1477 40.6272 47.5172 41.5341L24.1422 75.1591C23.5117 76.0661 22.2654 76.2902 21.3584 75.6597C20.4514 75.0292 20.2273 73.7829 20.8578 72.8759L44.2328 39.2509C44.8633 38.344 46.1096 38.1199 47.0166 38.7504Z" fill="#FDE3A0"/>
<path fill-rule="evenodd" clip-rule="evenodd" d="M60.5679 50.2859C61.2481 50.7588 61.4162 51.6935 60.9433 52.3738L37.5683 85.9988C37.0954 86.679 36.1607 86.8471 35.4805 86.3742C34.8003 85.9013 34.6322 84.9666 35.105 84.2864L58.48 50.6614C58.9529 49.9811 59.8876 49.8131 60.5679 50.2859Z" fill="#CCA238"/>
<path fill-rule="evenodd" clip-rule="evenodd" d="M42.449 40.1465C42.9991 40.1956 43.4052 40.6814 43.3561 41.2315C43.2609 42.2981 43.2985 44.1774 43.7465 46.2293C44.1947 48.2826 45.0368 50.4315 46.4914 52.1134C47.9747 53.8284 49.1037 55.0499 49.9777 55.9955C50.276 56.3183 50.5447 56.609 50.7875 56.8761C51.7093 57.8901 52.3478 58.6513 52.6749 59.5508C52.8636 60.0698 52.5959 60.6436 52.0768 60.8323C51.5578 61.0211 50.984 60.7533 50.7953 60.2343C50.6224 59.7588 50.2609 59.27 49.3076 58.2215C49.0773 57.9681 48.817 57.6865 48.5248 57.3703C47.6491 56.4229 46.4861 55.1646 44.9787 53.4217C43.2333 51.4036 42.2838 48.9067 41.7925 46.6558C41.3008 44.4035 41.2509 42.3203 41.364 41.0536C41.4132 40.5035 41.8989 40.0974 42.449 40.1465Z" fill="#CB9B1F"/>
<path fill-rule="evenodd" clip-rule="evenodd" d="M35.0325 51.5215C35.5826 51.5706 35.9887 52.0564 35.9396 52.6065C35.8444 53.6731 35.882 55.5524 36.3299 57.6043C36.7782 59.6576 37.6203 61.8065 39.0749 63.4884C40.5582 65.2034 41.6872 66.4249 42.5612 67.3705C42.8595 67.6933 43.1282 67.984 43.371 68.2511C44.2928 69.2651 44.9313 70.0263 45.2584 70.9258C45.4471 71.4448 45.1794 72.0186 44.6603 72.2073C44.1413 72.3961 43.5675 72.1283 43.3788 71.6093C43.2059 71.1338 42.8444 70.645 41.8911 69.5965C41.6608 69.3431 41.4005 69.0615 41.1083 68.7453C40.2326 67.7979 39.0696 66.5396 37.5622 64.7967C35.8168 62.7786 34.8673 60.2817 34.376 58.0308C33.8843 55.7785 33.8344 53.6953 33.9475 52.4286C33.9967 51.8785 34.4824 51.4724 35.0325 51.5215Z" fill="#CB9B1F"/>
<path fill-rule="evenodd" clip-rule="evenodd" d="M27.5325 60.8965C28.0826 60.9456 28.4887 61.4314 28.4396 61.9815C28.3444 63.0481 28.382 64.9274 28.8299 66.9793C29.2782 69.0326 30.1203 71.1815 31.5749 72.8634C33.0582 74.5784 34.1872 75.7999 35.0612 76.7455C35.3595 77.0683 35.6282 77.359 35.871 77.6261C36.7928 78.6401 37.4313 79.4013 37.7584 80.3008C37.9471 80.8198 37.6794 81.3936 37.1603 81.5823C36.6413 81.7711 36.0675 81.5033 35.8788 80.9843C35.7059 80.5088 35.3444 80.02 34.3911 78.9715C34.1608 78.7181 33.9005 78.4365 33.6083 78.1203C32.7326 77.1729 31.5696 75.9146 30.0622 74.1717C28.3168 72.1536 27.3673 69.6567 26.876 67.4058C26.3843 65.1535 26.3344 63.0703 26.4475 61.8036C26.4967 61.2535 26.9824 60.8474 27.5325 60.8965Z" fill="#CB9B1F"/>
<path d="M32.75 80.4863C32.75 81.1249 32.1903 81.6425 31.5 81.6425C30.8096 81.6425 30.25 81.1249 30.25 80.4863C30.25 79.8477 30.8096 79.33 31.5 79.33C32.1903 79.33 32.75 79.8477 32.75 80.4863Z" fill="#CCA238"/>
<path d="M35.4375 83.9863C35.4375 84.6249 34.8778 85.1425 34.1875 85.1425C33.4971 85.1425 32.9375 84.6249 32.9375 83.9863C32.9375 83.3477 33.4971 82.83 34.1875 82.83C34.8778 82.83 35.4375 83.3477 35.4375 83.9863Z" fill="#CCA238"/>
<path d="M31.4662 84.2363C31.4662 85.1855 30.6343 85.955 29.6081 85.955C28.5819 85.955 27.75 85.1855 27.75 84.2363C27.75 83.2871 28.5819 82.5175 29.6081 82.5175C30.6343 82.5175 31.4662 83.2871 31.4662 84.2363Z" fill="#CCA238"/>
<path d="M39.6078 80.4863C39.6078 81.4355 38.7759 82.205 37.7496 82.205C36.7234 82.205 35.8915 81.4355 35.8915 80.4863C35.8915 79.5371 36.7234 78.7675 37.7496 78.7675C38.7759 78.7675 39.6078 79.5371 39.6078 80.4863Z" fill="#CCA238"/>
<path d="M37.6969 77.0488C37.6969 77.4975 37.3037 77.8613 36.8186 77.8613C36.3334 77.8613 35.9402 77.4975 35.9402 77.0488C35.9402 76.6001 36.3334 76.2363 36.8186 76.2363C37.3037 76.2363 37.6969 76.6001 37.6969 77.0488Z" fill="#CCA238"/>
<path d="M41.521 78.5175C41.521 78.9663 41.1277 79.33 40.6426 79.33C40.1575 79.33 39.7643 78.9663 39.7643 78.5175C39.7643 78.0688 40.1575 77.705 40.6426 77.705C41.1277 77.705 41.521 78.0688 41.521 78.5175Z" fill="#CCA238"/>
<path d="M42.6866 74.455C42.6866 74.9038 42.2933 75.2675 41.8082 75.2675C41.3231 75.2675 40.9298 74.9038 40.9298 74.455C40.9298 74.0063 41.3231 73.6425 41.8082 73.6425C42.2933 73.6425 42.6866 74.0063 42.6866 74.455Z" fill="#CCA238"/>
<path d="M44.3738 80.1269C44.3738 80.5757 43.9805 80.9394 43.4954 80.9394C43.0103 80.9394 42.617 80.5757 42.617 80.1269C42.617 79.6782 43.0103 79.3144 43.4954 79.3144C43.9805 79.3144 44.3738 79.6782 44.3738 80.1269Z" fill="#CCA238"/>
<path d="M38.9585 85.2365C38.9585 85.6853 38.5652 86.049 38.0801 86.049C37.595 86.049 37.2018 85.6853 37.2018 85.2365C37.2018 84.7878 37.595 84.424 38.0801 84.424C38.5652 84.424 38.9585 84.7878 38.9585 85.2365Z" fill="#CCA238"/>
<path d="M33.2567 86.8615C33.2567 87.3103 32.8635 87.674 32.3783 87.674C31.8932 87.674 31.5 87.3103 31.5 86.8615C31.5 86.4128 31.8932 86.049 32.3783 86.049C32.8635 86.049 33.2567 86.4128 33.2567 86.8615Z" fill="#CCA238"/>
<path d="M25.3532 82.83C25.3532 83.2788 24.9599 83.6425 24.4748 83.6425C23.9897 83.6425 23.5964 83.2788 23.5964 82.83C23.5964 82.3813 23.9897 82.0175 24.4748 82.0175C24.9599 82.0175 25.3532 82.3813 25.3532 82.83Z" fill="#CCA238"/>
<path d="M29.1537 81.205C29.1537 81.6538 28.7605 82.0175 28.2754 82.0175C27.7902 82.0175 27.397 81.6538 27.397 81.205C27.397 80.7563 27.7902 80.3925 28.2754 80.3925C28.7605 80.3925 29.1537 80.7563 29.1537 81.205Z" fill="#CCA238"/>
<path d="M46.0753 77.5957C46.0753 78.0444 45.6821 78.4082 45.197 78.4082C44.7118 78.4082 44.3186 78.0444 44.3186 77.5957C44.3186 77.1469 44.7118 76.7832 45.197 76.7832C45.6821 76.7832 46.0753 77.1469 46.0753 77.5957Z" fill="#CCA238"/>
<path d="M33.2989 77.5957C33.2989 77.8977 33.0342 78.1425 32.7076 78.1425C32.3811 78.1425 32.1164 77.8977 32.1164 77.5957C32.1164 77.2936 32.3811 77.0488 32.7076 77.0488C33.0342 77.0488 33.2989 77.2936 33.2989 77.5957Z" fill="#CCA238"/>
<path d="M29.6081 78.6894C29.6081 78.9915 29.3434 79.2363 29.0169 79.2363C28.6903 79.2363 28.4256 78.9915 28.4256 78.6894C28.4256 78.3874 28.6903 78.1425 29.0169 78.1425C29.3434 78.1425 29.6081 78.3874 29.6081 78.6894Z" fill="#CCA238"/>
<path d="M35.0284 80.9394C35.0284 81.2415 34.7637 81.4863 34.4372 81.4863C34.1107 81.4863 33.846 81.2415 33.846 80.9394C33.846 80.6374 34.1107 80.3925 34.4372 80.3925C34.7637 80.3925 35.0284 80.6374 35.0284 80.9394Z" fill="#CCA238"/>
<path d="M42.1122 83.0644C42.1122 83.3665 41.8475 83.6113 41.521 83.6113C41.1945 83.6113 40.9298 83.3665 40.9298 83.0644C40.9298 82.7624 41.1945 82.5175 41.521 82.5175C41.8475 82.5175 42.1122 82.7624 42.1122 83.0644Z" fill="#CCA238"/>
<path d="M35.8915 87.674C35.8915 87.9761 35.6268 88.2209 35.3003 88.2209C34.9738 88.2209 34.7091 87.9761 34.7091 87.674C34.7091 87.372 34.9738 87.1272 35.3003 87.1272C35.6268 87.1272 35.8915 87.372 35.8915 87.674Z" fill="#CCA238"/>
<path d="M40.1409 76.0017C40.1409 76.3037 39.8762 76.5486 39.5497 76.5486C39.2232 76.5486 38.9585 76.3037 38.9585 76.0017C38.9585 75.6996 39.2232 75.4548 39.5497 75.4548C39.8762 75.4548 40.1409 75.6996 40.1409 76.0017Z" fill="#CCA238"/>
</svg>
