<svg width="96" height="96" viewBox="0 0 96 96" fill="none" xmlns="http://www.w3.org/2000/svg">
<path d="M23.3685 48.4543C31.2692 33.1268 43.5154 33.377 48.6509 35.418L65.2425 49.6395C66.296 54.3141 66.3091 65.2435 57.9343 71.5641C49.5595 77.8847 34.627 78.6748 26.1337 74.7244C19.3391 65.5595 21.4591 53.3923 23.3685 48.4543Z" fill="#EA6C25"/>
<path fill-rule="evenodd" clip-rule="evenodd" d="M49.3896 33.5594C49.5947 33.6409 49.7849 33.7559 49.9525 33.8995L66.5441 48.1209C66.8711 48.4012 67.0989 48.7796 67.1936 49.1997C67.7797 51.8005 68.0573 56.0006 67.0765 60.418C66.0894 64.8632 63.7976 69.6446 59.1391 73.1604C54.5598 76.6166 48.3322 78.4743 42.2469 78.9887C36.1637 79.503 29.9368 78.699 25.2903 76.5378C24.988 76.3972 24.7256 76.1833 24.5271 75.9155C20.8112 70.9033 19.5728 65.1247 19.4874 60.0378C19.4022 54.9633 20.4598 50.4312 21.5031 47.733C21.5288 47.6665 21.558 47.6013 21.5907 47.5379C25.7512 39.4666 31.168 35.3129 36.4017 33.5298C41.5716 31.7684 46.4079 32.3744 49.3896 33.5594ZM26.1337 74.7244C19.3391 65.5595 21.4591 53.3923 23.3685 48.4543C31.2692 33.1268 43.5154 33.377 48.6509 35.418L65.2425 49.6394C66.296 54.314 66.3091 65.2434 57.9343 71.5641C49.5595 77.8847 34.627 78.6748 26.1337 74.7244Z" fill="#923805"/>
<path d="M42.8484 54.63C40.7292 60.9095 35.0873 64.6757 30.2469 63.0421C25.4064 61.4085 23.2005 54.9938 25.3198 48.7143C27.439 42.4349 33.0809 38.6686 37.9213 40.3022C42.7617 41.9358 44.9677 48.3506 42.8484 54.63Z" fill="#FD8542"/>
<path fill-rule="evenodd" clip-rule="evenodd" d="M34.2393 76.8807C42.271 77.8348 51.8393 76.1641 57.9343 71.5641C66.3091 65.2435 66.2959 54.3141 65.2425 49.6395L48.6509 35.418C46.3381 34.4989 42.5832 33.9429 38.4325 35.0094C38.8728 35.1328 39.2803 35.2708 39.6509 35.418L56.2425 49.6395C57.2959 54.3141 57.3091 65.2435 48.9343 71.5641C45.0244 74.5149 39.6852 76.2604 34.2393 76.8807Z" fill="#CB5817"/>
<path fill-rule="evenodd" clip-rule="evenodd" d="M35.3224 41.3063C35.6365 41.7606 35.5228 42.3835 35.0685 42.6975C31.9819 44.8315 25.5934 52.5887 26.3732 65.9417C26.4053 66.493 25.9845 66.9661 25.4331 66.9983C24.8818 67.0305 24.4087 66.6096 24.3766 66.0583C23.5563 52.0112 30.2678 43.5851 33.9312 41.0524C34.3855 40.7383 35.0083 40.852 35.3224 41.3063Z" fill="#FFC09D"/>
<path d="M69.3904 20.604C60.8575 23.1322 57.4075 31.1384 56.7491 34.8254L59.3169 36.9981C61.8451 30.6775 66.0819 29.2456 69.3904 28.7023C72.3927 28.5443 72.3938 30.1035 74.5259 30.6775C78.6343 31.7836 80.1881 29.2948 80.4515 27.9122C80.4515 24.0608 77.9232 18.0757 69.3904 20.604Z" fill="#85360A"/>
<path fill-rule="evenodd" clip-rule="evenodd" d="M55.4573 36.3521C54.9129 35.8915 54.655 35.1758 54.7803 34.4738C55.5103 30.3859 59.2804 21.5136 68.8222 18.6864C73.5963 17.2718 77.1757 18.1434 79.5193 20.436C81.7231 22.5918 82.4515 25.6443 82.4515 27.9122C82.4515 28.0378 82.4397 28.1631 82.4162 28.2864C82.205 29.3951 81.5125 30.8586 80.0802 31.8647C78.5701 32.9255 76.5176 33.2849 74.006 32.6087C72.7469 32.2697 71.8624 31.5985 71.3826 31.2345C71.2903 31.1644 71.2129 31.1057 71.1508 31.063C70.9386 30.917 70.7853 30.8377 70.5995 30.7835C70.4156 30.7298 70.113 30.6763 69.6009 30.6948C68.121 30.9464 66.5986 31.3771 65.1855 32.3377C63.7596 33.307 62.3058 34.9112 61.1739 37.7409C60.9351 38.3378 60.424 38.7835 59.8001 38.9388C59.1763 39.0942 58.5158 38.9401 58.0251 38.5249L55.4573 36.3521ZM69.3904 28.7023C71.2091 28.6066 71.9265 29.1409 72.6834 29.7048C73.176 30.0717 73.6854 30.4512 74.5259 30.6775C78.6343 31.7836 80.1881 29.2948 80.4515 27.9122C80.4515 24.0608 77.9233 18.0757 69.3904 20.604C60.8576 23.1322 57.4076 31.1383 56.7492 34.8254L59.3169 36.9981C59.5897 36.3162 59.8823 35.6913 60.1915 35.1182C62.7485 30.3789 66.4389 29.187 69.3904 28.7023Z" fill="#4D1F05"/>
<path fill-rule="evenodd" clip-rule="evenodd" d="M71.8123 26.6693C71.8223 27.2215 71.3828 27.6773 70.8306 27.6873C68.7938 27.7244 63.5365 29.0239 59.8018 34.0351C59.4717 34.4779 58.8452 34.5693 58.4024 34.2393C57.9595 33.9093 57.8681 33.2828 58.1981 32.8399C62.3633 27.2511 68.2477 25.734 70.7943 25.6877C71.3465 25.6776 71.8022 26.1171 71.8123 26.6693Z" fill="#4D1F05"/>
<path fill-rule="evenodd" clip-rule="evenodd" d="M68.375 23.1051C71.6134 21.5939 74.5621 22.0824 75.7612 22.5992C76.2684 22.8178 76.5023 23.4062 76.2837 23.9134C76.0651 24.4205 75.4767 24.6545 74.9695 24.4359C74.2592 24.1297 71.9078 23.6635 69.2207 24.9175C68.7203 25.1511 68.1252 24.9347 67.8917 24.4342C67.6581 23.9337 67.8745 23.3387 68.375 23.1051Z" fill="#BE5B23"/>
<path d="M32.9999 26.25C30.8668 31.7016 32.8611 34.0844 33.7499 35.5C36.6139 35.5 41.0588 38.2836 49.7496 44.8017C56.7606 50.06 64.0056 59.1613 65.1249 63.375C66.738 64.198 71.4999 64.125 73.7499 61.125C76.5771 57.3553 76.283 54.4472 75.7234 52.4062C73.9062 46.0856 69.113 37.566 64.2673 33.2468C54.9275 24.9219 48.8611 23.1198 44.3264 21.7727L44.2499 21.75C41.6164 20.9928 34.7607 21.75 32.9999 26.25Z" fill="#863203"/>
<path fill-rule="evenodd" clip-rule="evenodd" d="M33.7499 37.5C33.0618 37.5 32.422 37.1462 32.0561 36.5635C32.0093 36.4889 31.9523 36.4023 31.8877 36.3041C31.4542 35.6456 30.6764 34.464 30.2951 32.8477C29.8422 30.9281 29.9515 28.5521 31.1374 25.5212C32.3424 22.4418 35.1987 20.8457 37.74 20.1079C40.2753 19.3717 43.042 19.3217 44.8025 19.8278L44.8195 19.8328L44.8959 19.8555C44.8959 19.8555 44.8959 19.8555 44.8959 19.8555C49.6094 21.2557 55.9706 23.1725 65.598 31.7538C68.2319 34.1014 70.7648 37.5016 72.8558 41.0634C74.953 44.6357 76.6814 48.5002 77.6455 51.8535L77.6522 51.8773C77.9749 53.0542 78.2489 54.5847 77.9862 56.4032C77.7226 58.228 76.9391 60.2061 75.3499 62.325C73.8179 64.3677 71.5208 65.3105 69.5405 65.6541C67.6304 65.9856 65.5501 65.8372 64.216 65.1565C63.71 64.8984 63.3377 64.4373 63.1919 63.8884C62.9874 63.1186 62.4458 61.957 61.5359 60.4876C60.6451 59.0492 59.4694 57.4235 58.0981 55.7457C55.3483 52.3815 51.8982 48.9131 48.5496 46.4017C44.2073 43.1449 40.9996 40.878 38.5469 39.4282C36.0313 37.9411 34.6053 37.5 33.7499 37.5ZM44.3264 21.7727L44.2499 21.75C41.6164 20.9928 34.7608 21.75 32.9999 26.25C31.0201 31.3096 32.5956 33.7259 33.543 35.1789C33.6164 35.2914 33.686 35.3982 33.7499 35.5C36.6139 35.5 41.0588 38.2835 49.7496 44.8017C56.7606 50.0599 64.0056 59.1612 65.1249 63.375C66.738 64.198 71.4999 64.125 73.7499 61.125C76.5771 57.3553 76.283 54.4472 75.7234 52.4062C73.9062 46.0855 69.113 37.5659 64.2673 33.2468C54.9275 24.9218 48.8611 23.1197 44.3264 21.7727Z" fill="#491C03"/>
<path fill-rule="evenodd" clip-rule="evenodd" d="M37.5943 26.0834C38.1005 23.6502 40.4834 22.0881 42.9165 22.5943C46.3976 23.3186 50.6263 24.7189 54.508 26.9917C58.3703 29.2531 62.2056 32.5691 64.3441 37.2575C65.3755 39.5186 64.3786 42.1878 62.1175 43.2192C59.8563 44.2506 57.1871 43.2537 56.1557 40.9925C55.0443 38.5559 52.8587 36.4552 49.9606 34.7583C47.0819 33.0728 43.8105 31.9731 41.0833 31.4056C38.6501 30.8994 37.088 28.5166 37.5943 26.0834Z" fill="#A84610"/>
<path fill-rule="evenodd" clip-rule="evenodd" d="M41.0739 25.7222C41.1975 24.903 41.9618 24.3392 42.781 24.4629C46.0243 24.9524 53.271 26.9825 59.1742 33.4127C59.7344 34.023 59.6938 34.9719 59.0836 35.5321C58.4733 36.0924 57.5244 36.0518 56.9642 35.4416C51.6673 29.6717 45.1433 27.8534 42.3332 27.4293C41.5141 27.3056 40.9502 26.5413 41.0739 25.7222Z" fill="#D87138"/>
<path fill-rule="evenodd" clip-rule="evenodd" d="M37.6949 46.7578C37.8976 46.2441 38.4785 45.992 38.9922 46.1948C41.5249 47.1946 45.4415 49.7822 49.1471 53.2027C52.8586 56.6287 56.4778 60.9992 58.3053 65.6331C58.5079 66.1469 58.2557 66.7276 57.7419 66.9302C57.2281 67.1329 56.6474 66.8806 56.4447 66.3668C54.7722 62.1257 51.3915 57.9963 47.7905 54.6723C44.1835 51.3428 40.4751 48.9304 38.2579 48.0551C37.7441 47.8523 37.4921 47.2715 37.6949 46.7578Z" fill="#DD621D"/>
<path fill-rule="evenodd" clip-rule="evenodd" d="M33.3332 51.2492C33.5667 50.7488 34.1618 50.5324 34.6623 50.7659C36.6515 51.6943 40.1259 53.9384 43.4976 57.2124C46.8722 60.4892 50.2139 64.8653 51.8302 70.0789C51.9937 70.6064 51.6986 71.1666 51.1711 71.3302C50.6436 71.4937 50.0834 71.1986 49.9198 70.6711C48.436 65.8847 45.335 61.7843 42.1043 58.6472C38.8706 55.5072 35.5772 53.4 33.8165 52.5783C33.316 52.3447 33.0996 51.7497 33.3332 51.2492Z" fill="#DD621D"/>
<path fill-rule="evenodd" clip-rule="evenodd" d="M30.4688 58.7021C30.7024 58.2016 31.2974 57.9853 31.7979 58.2188C35.755 60.0654 40.8103 63.8618 44.5382 72.2176C44.7632 72.7219 44.5368 73.3132 44.0324 73.5382C43.5281 73.7632 42.9368 73.5368 42.7118 73.0324C39.1897 65.1382 34.495 61.6845 30.9521 60.0312C30.4516 59.7976 30.2353 59.2026 30.4688 58.7021Z" fill="#DD621D"/>
<path d="M69.75 51.625C69.75 52.5915 69.0225 53.375 68.125 53.375C67.2275 53.375 66.5 52.5915 66.5 51.625C66.5 50.6585 67.2275 49.875 68.125 49.875C69.0225 49.875 69.75 50.6585 69.75 51.625Z" fill="#AD460C"/>
<path d="M61.9375 50.4102C61.9375 51.1072 61.4128 51.6722 60.7656 51.6722C60.1184 51.6722 59.5938 51.1072 59.5938 50.4102C59.5938 49.7132 60.1184 49.1482 60.7656 49.1482C61.4128 49.1482 61.9375 49.7132 61.9375 50.4102Z" fill="#AD460C"/>
<path d="M67.0938 47.5352C67.0938 48.2322 66.5691 48.7972 65.9219 48.7972C65.2747 48.7972 64.75 48.2322 64.75 47.5352C64.75 46.8382 65.2747 46.2732 65.9219 46.2732C66.5691 46.2732 67.0938 46.8382 67.0938 47.5352Z" fill="#AD460C"/>
<path d="M71.4375 46.7809C71.4375 47.4779 70.9128 48.043 70.2656 48.043C69.6184 48.043 69.0938 47.4779 69.0938 46.7809C69.0938 46.0839 69.6184 45.5189 70.2656 45.5189C70.9128 45.5189 71.4375 46.0839 71.4375 46.7809Z" fill="#AD460C"/>
<path d="M75.3315 54.8125C75.3315 55.779 74.604 56.5625 73.7065 56.5625C72.8091 56.5625 72.0815 55.779 72.0815 54.8125C72.0815 53.846 72.8091 53.0625 73.7065 53.0625C74.604 53.0625 75.3315 53.846 75.3315 54.8125Z" fill="#AD460C"/>
<path d="M69.394 60.875C69.394 61.8415 68.6665 62.625 67.769 62.625C66.8716 62.625 66.144 61.8415 66.144 60.875C66.144 59.9085 66.8716 59.125 67.769 59.125C68.6665 59.125 69.394 59.9085 69.394 60.875Z" fill="#AD460C"/>
<path d="M73.5 50.629C73.5 51.2051 73.0663 51.6722 72.5312 51.6722C71.9962 51.6722 71.5625 51.2051 71.5625 50.629C71.5625 50.0528 71.9962 49.5857 72.5312 49.5857C73.0663 49.5857 73.5 50.0528 73.5 50.629Z" fill="#AD460C"/>
<path d="M73.0503 59.1251C73.0503 59.7012 72.6166 60.1683 72.0815 60.1683C71.5465 60.1683 71.1128 59.7012 71.1128 59.1251C71.1128 58.5489 71.5465 58.0818 72.0815 58.0818C72.6166 58.0818 73.0503 58.5489 73.0503 59.1251Z" fill="#AD460C"/>
<path d="M70.0625 56.2501C70.0625 56.8262 69.6288 57.2933 69.0938 57.2933C68.5587 57.2933 68.125 56.8262 68.125 56.2501C68.125 55.6739 68.5587 55.2068 69.0938 55.2068C69.6288 55.2068 70.0625 55.6739 70.0625 56.2501Z" fill="#AD460C"/>
<path d="M68.6004 43.9678C68.6004 44.3973 68.2771 44.7455 67.8783 44.7455C67.4795 44.7455 67.1562 44.3973 67.1562 43.9678C67.1562 43.5383 67.4795 43.1902 67.8783 43.1902C68.2771 43.1902 68.6004 43.5383 68.6004 43.9678Z" fill="#AD460C"/>
<path d="M62.75 46.3473C62.75 46.7768 62.4267 47.125 62.0279 47.125C61.6291 47.125 61.3058 46.7768 61.3058 46.3473C61.3058 45.9179 61.6291 45.5697 62.0279 45.5697C62.4267 45.5697 62.75 45.9179 62.75 46.3473Z" fill="#AD460C"/>
<path d="M57.4713 46.7576C57.4713 47.1871 57.148 47.5352 56.7492 47.5352C56.3504 47.5352 56.0271 47.1871 56.0271 46.7576C56.0271 46.3281 56.3504 45.98 56.7492 45.98C57.148 45.98 57.4713 46.3281 57.4713 46.7576Z" fill="#AD460C"/>
<path d="M64.75 54.7398C64.75 55.316 64.3163 55.7831 63.7812 55.7831C63.2462 55.7831 62.8125 55.316 62.8125 54.7398C62.8125 54.1636 63.2462 53.6965 63.7812 53.6965C64.3163 53.6965 64.75 54.1636 64.75 54.7398Z" fill="#AD460C"/>
</svg>
