<svg width="170" height="47" viewBox="0 0 170 47" fill="none" xmlns="http://www.w3.org/2000/svg">
<path d="M39.1997 18.587H40.3896V17.3971H39.1997V18.587ZM39.1997 20.1166V21.3065H40.3896V20.1166H39.1997ZM33.1069 20.1166H31.917V21.3065H33.1069V20.1166ZM33.1069 18.587V17.3971H31.917V18.587H33.1069ZM34.8827 15.7727V14.5828H33.6928V15.7727H34.8827ZM36.6891 15.7727H37.879V14.5828H36.6891V15.7727ZM36.9111 28.1161L35.882 28.7135L35.8891 28.7257L35.8965 28.7378L36.9111 28.1161ZM37.4928 28.6208L37.0807 29.7371L37.0951 29.7424L37.1097 29.7474L37.4928 28.6208ZM38.7405 28.7126L38.9283 29.8876L38.9511 29.884L38.9736 29.8795L38.7405 28.7126ZM39.0466 28.6514L40.2071 28.3885L39.9508 27.2573L38.8135 27.4846L39.0466 28.6514ZM39.4141 30.2727L39.8315 31.387L40.8041 31.0226L40.5745 30.0098L39.4141 30.2727ZM38.9012 30.4104L38.6576 29.2457L38.6447 29.2484L38.6319 29.2514L38.9012 30.4104ZM36.5667 30.158L36.0763 31.2422L36.0806 31.2441L36.5667 30.158ZM35.3573 29.1562L34.3848 29.8419L34.39 29.8492L35.3573 29.1562ZM41.917 30.3339H40.7271V31.5238H41.917V30.3339ZM41.917 18.587V17.3971H40.7271V18.587H41.917ZM43.6622 18.587H44.8521V17.3971H43.6622V18.587ZM43.6622 20.3613H42.4723V21.5512H43.6622V20.3613ZM43.7847 20.3613V21.5512H44.6141L44.9011 20.773L43.7847 20.3613ZM44.9481 18.9465L44.3032 17.9465L44.3032 17.9465L44.9481 18.9465ZM47.7955 18.4341H48.9854V17.3572L47.9138 17.2501L47.7955 18.4341ZM47.7955 20.2695L47.5072 21.424L48.9854 21.7932V20.2695H47.7955ZM47.3745 20.2007L47.1791 21.3745L47.1946 21.377L47.2102 21.3792L47.3745 20.2007ZM45.1624 20.5066L45.7182 21.5587L45.7226 21.5564L45.1624 20.5066ZM44.1061 21.4855L43.096 20.8567L43.0938 20.8601L44.1061 21.4855ZM43.7234 30.3339V31.5238H44.9133V30.3339H43.7234ZM50.6391 34.6625L50.8865 33.4986L50.8746 33.4961L50.8627 33.4938L50.6391 34.6625ZM50.1416 34.5249L48.9983 34.1948L48.7235 35.1466L49.6098 35.5893L50.1416 34.5249ZM50.6008 32.9342L50.8955 31.7813L49.7776 31.4956L49.4576 32.6041L50.6008 32.9342ZM51.7643 33.0565L51.6566 31.8715L51.6566 31.8715L51.7643 33.0565ZM52.6598 32.6053L51.8188 31.7635L51.8107 31.7716L51.8028 31.7799L52.6598 32.6053ZM53.387 31.3128L54.5037 31.7236L54.504 31.7228L53.387 31.3128ZM53.7238 30.3951L54.8408 30.8051L54.9915 30.3944L54.8404 29.984L53.7238 30.3951ZM49.3761 18.587V17.3971H47.67L48.2595 18.9982L49.3761 18.587ZM51.3356 18.587L52.4599 18.1973L52.1825 17.3971H51.3356V18.587ZM54.581 27.9478L53.4568 28.3376L53.7342 29.1377H54.581V27.9478ZM54.7035 27.9478V29.1377H55.5504L55.8278 28.3376L54.7035 27.9478ZM57.9489 18.587V17.3971H57.1021L56.8247 18.1973L57.9489 18.587ZM59.9084 18.587L61.0241 19.0007L61.6187 17.3971H59.9084V18.587ZM54.9178 32.047L53.8022 31.6334L53.8019 31.634L54.9178 32.047ZM54.0835 33.5536L53.1697 32.7915L53.165 32.7972L54.0835 33.5536ZM52.9277 34.4484L52.4471 33.3598L52.4424 33.362L52.9277 34.4484ZM68.355 30.3339H67.1651V31.5238H68.355V30.3339ZM68.355 18.587V17.3971H67.1651V18.587H68.355ZM70.1614 18.587H71.3513V17.3971H70.1614V18.587ZM70.1614 30.3339V31.5238H71.3513V30.3339H70.1614ZM68.3626 16.2698L67.5393 17.1289L67.548 17.1371L68.3626 16.2698ZM68.3626 14.5414L67.548 13.674L67.5393 13.6823L68.3626 14.5414ZM70.1767 14.5414L69.3533 15.4005L69.3621 15.4088L70.1767 14.5414ZM70.1767 16.2698L69.362 15.4024L69.3534 15.4107L70.1767 16.2698ZM78.583 18.587H79.7729V17.3971H78.583V18.587ZM78.583 20.1166V21.3065H79.7729V20.1166H78.583ZM72.4902 20.1166H71.3003V21.3065H72.4902V20.1166ZM72.4902 18.587V17.3971H71.3003V18.587H72.4902ZM74.266 15.7727V14.5828H73.0761V15.7727H74.266ZM76.0724 15.7727H77.2623V14.5828H76.0724V15.7727ZM76.2944 28.1161L75.2653 28.7135L75.2724 28.7257L75.2798 28.7378L76.2944 28.1161ZM76.8761 28.6208L76.4639 29.7371L76.4784 29.7424L76.4929 29.7474L76.8761 28.6208ZM78.1238 28.7126L78.3116 29.8876L78.3343 29.884L78.3569 29.8795L78.1238 28.7126ZM78.4299 28.6514L79.5904 28.3885L79.3341 27.2573L78.1968 27.4846L78.4299 28.6514ZM78.7973 30.2727L79.2148 31.387L80.1873 31.0226L79.9578 30.0098L78.7973 30.2727ZM78.2845 30.4104L78.0409 29.2457L78.028 29.2484L78.0152 29.2514L78.2845 30.4104ZM75.9499 30.158L75.4596 31.2422L75.4639 31.2441L75.9499 30.158ZM74.7406 29.1562L73.7681 29.8419L73.7733 29.8492L74.7406 29.1562ZM89.345 29.8215L88.7078 30.8265L88.7107 30.8283L89.345 29.8215ZM87.4773 27.7031L86.4084 28.226L86.4108 28.2308L87.4773 27.7031ZM87.4773 21.3173L86.4096 20.7919L86.4073 20.7968L87.4773 21.3173ZM89.345 19.1912L88.7107 18.1845L88.7078 18.1863L89.345 19.1912ZM94.9249 19.1912L94.2878 20.1961L94.2907 20.198L94.9249 19.1912ZM96.7926 21.3173L95.7226 21.8378L95.7249 21.8426L96.7926 21.3173ZM96.7926 27.7031L95.7261 27.1754L95.7237 27.1802L96.7926 27.7031ZM94.9249 29.8215L94.2907 28.8148L94.2878 28.8166L94.9249 29.8215ZM94.1289 28.3379L93.3893 27.4057L93.3893 27.4057L94.1289 28.3379ZM95.2847 26.7089L96.4001 27.1233L96.4001 27.1233L95.2847 26.7089ZM95.2847 22.3268L96.4011 21.9151L96.4011 21.9151L95.2847 22.3268ZM94.1289 20.6825L94.874 19.7548L94.874 19.7548L94.1289 20.6825ZM90.1487 20.6825L89.4035 19.7548L89.4035 19.7548L90.1487 20.6825ZM88.9929 22.3268L87.8764 21.9151L87.8764 21.9151L88.9929 22.3268ZM88.9929 26.7089L87.8775 27.1233L87.8775 27.1233L88.9929 26.7089ZM90.1487 28.3379L90.8882 27.4057L90.8882 27.4057L90.1487 28.3379ZM107.633 18.587V17.3971H106.443V18.587H107.633ZM109.439 18.587H110.629V17.3971H109.439V18.587ZM109.439 30.3339V31.5238H110.629V30.3339H109.439ZM107.633 30.3339H106.443V31.5238H107.633V30.3339ZM107.633 28.3455H108.823V27.1556H107.633V28.3455ZM107.511 28.3455V27.1556H106.749L106.43 27.8465L107.511 28.3455ZM106.225 29.8674L106.913 30.8377L106.919 30.8337L106.225 29.8674ZM102.061 30.0051L101.471 31.0384L101.478 31.0424L102.061 30.0051ZM100.714 28.5367L99.6478 29.0659L99.6494 29.0692L100.714 28.5367ZM100.224 18.587V17.3971H99.0337V18.587H100.224ZM102.03 18.587H103.22V17.3971H102.03V18.587ZM102.75 27.9784L101.883 28.7938L101.887 28.7983L102.75 27.9784ZM105.972 28.3991L105.45 27.33L105.445 27.3323L105.972 28.3991ZM107.151 27.3437L106.166 26.6759L106.161 26.6832L107.151 27.3437ZM117.861 18.587H119.051V17.3971H117.861V18.587ZM117.861 20.1166V21.3065H119.051V20.1166H117.861ZM111.768 20.1166H110.578V21.3065H111.768V20.1166ZM111.768 18.587V17.3971H110.578V18.587H111.768ZM113.544 15.7727V14.5828H112.354V15.7727H113.544ZM115.35 15.7727H116.54V14.5828H115.35V15.7727ZM115.572 28.1161L114.543 28.7135L114.55 28.7257L114.558 28.7378L115.572 28.1161ZM116.154 28.6208L115.742 29.7371L115.756 29.7424L115.771 29.7474L116.154 28.6208ZM117.402 28.7126L117.59 29.8876L117.612 29.884L117.635 29.8795L117.402 28.7126ZM117.708 28.6514L118.868 28.3885L118.612 27.2573L117.475 27.4846L117.708 28.6514ZM118.075 30.2727L118.493 31.387L119.465 31.0226L119.236 30.0098L118.075 30.2727ZM117.563 30.4104L117.319 29.2457L117.306 29.2484L117.293 29.2514L117.563 30.4104ZM115.228 30.158L114.738 31.2422L114.742 31.2441L115.228 30.158ZM114.019 29.1562L113.046 29.8419L113.051 29.8492L114.019 29.1562ZM131.884 30.1832C131.419 30.6477 131.419 31.4011 131.883 31.866C132.348 32.3309 133.101 32.3312 133.566 31.8668L131.884 30.1832ZM143.792 19.9679H144.982C144.982 19.3107 144.449 18.778 143.792 18.778V19.9679ZM134.8 18.778C134.143 18.778 133.61 19.3107 133.61 19.9679C133.61 20.625 134.143 21.1578 134.8 21.1578V18.778ZM142.602 28.5679C142.602 29.225 143.135 29.7578 143.792 29.7578C144.449 29.7578 144.982 29.225 144.982 28.5679H142.602ZM23.5185 3.1899H146.481V0.810096H23.5185V3.1899ZM146.481 43.8101H23.5185V46.1899H146.481V43.8101ZM23.5185 43.8101C12.2904 43.8101 3.1899 34.716 3.1899 23.5H0.810096C0.810096 36.0322 10.978 46.1899 23.5185 46.1899V43.8101ZM166.81 23.5C166.81 34.716 157.71 43.8101 146.481 43.8101V46.1899C159.022 46.1899 169.19 36.0322 169.19 23.5H166.81ZM146.481 3.1899C157.71 3.1899 166.81 12.284 166.81 23.5H169.19C169.19 10.9678 159.022 0.810096 146.481 0.810096V3.1899ZM23.5185 0.810096C10.978 0.810096 0.810096 10.9678 0.810096 23.5H3.1899C3.1899 12.284 12.2904 3.1899 23.5185 3.1899V0.810096ZM38.0098 18.587V20.1166H40.3896V18.587H38.0098ZM39.1997 18.9267H33.1069V21.3065H39.1997V18.9267ZM34.2968 20.1166V18.587H31.917V20.1166H34.2968ZM33.1069 19.7769H39.1997V17.3971H33.1069V19.7769ZM34.8827 16.9626H36.6891V14.5828H34.8827V16.9626ZM35.4992 15.7727V26.9689H37.879V15.7727H35.4992ZM35.4992 26.9689C35.4992 27.5549 35.5774 28.1887 35.882 28.7135L37.9402 27.5187C37.9506 27.5367 37.9322 27.5121 37.9129 27.4121C37.8939 27.3141 37.879 27.1698 37.879 26.9689H35.4992ZM35.8965 28.7378C36.1643 29.1748 36.554 29.5426 37.0807 29.7371L37.905 27.5046C37.9141 27.508 37.9237 27.5125 37.9327 27.5178C37.9416 27.5232 37.9478 27.528 37.9512 27.5309C37.9581 27.5369 37.9474 27.5299 37.9257 27.4944L35.8965 28.7378ZM37.1097 29.7474C37.4787 29.8729 37.8612 29.9331 38.2506 29.9331V27.5533C38.1093 27.5533 37.9867 27.532 37.876 27.4943L37.1097 29.7474ZM38.2506 29.9331C38.4828 29.9331 38.7149 29.9217 38.9283 29.8876L38.5526 27.5376C38.5109 27.5443 38.4165 27.5533 38.2506 27.5533V29.9331ZM38.9736 29.8795C39.1012 29.854 39.2033 29.8336 39.2798 29.8183L38.8135 27.4846C38.7369 27.4999 38.6349 27.5203 38.5073 27.5458L38.9736 29.8795ZM37.8862 28.9144L38.2536 30.5357L40.5745 30.0098L40.2071 28.3885L37.8862 28.9144ZM38.9966 29.1585C38.9567 29.1734 38.8533 29.2048 38.6576 29.2457L39.1448 31.5751C39.388 31.5243 39.6265 31.4638 39.8315 31.387L38.9966 29.1585ZM38.6319 29.2514C38.5327 29.2744 38.353 29.297 38.0669 29.297V31.6768C38.4544 31.6768 38.8309 31.6483 39.1705 31.5694L38.6319 29.2514ZM38.0669 29.297C37.7328 29.297 37.3978 29.2264 37.0527 29.0719L36.0806 31.2441C36.7153 31.5282 37.3805 31.6768 38.0669 31.6768V29.297ZM37.057 29.0738C36.7701 28.9441 36.5289 28.7484 36.3245 28.4631L34.39 29.8492C34.8286 30.4613 35.3937 30.9335 36.0763 31.2422L37.057 29.0738ZM36.3297 28.4705C36.1862 28.2669 36.0726 27.9566 36.0726 27.4584H33.6928C33.6928 28.3265 33.8956 29.1482 34.3848 29.8419L36.3297 28.4705ZM36.0726 27.4584V15.7727H33.6928V27.4584H36.0726ZM43.1069 30.3339V18.587H40.7271V30.3339H43.1069ZM41.917 19.7769H43.6622V17.3971H41.917V19.7769ZM42.4723 18.587V20.3613H44.8521V18.587H42.4723ZM43.6622 21.5512H43.7847V19.1714H43.6622V21.5512ZM44.9011 20.773C45.019 20.4531 45.2305 20.1803 45.593 19.9465L44.3032 17.9465C43.5431 18.4367 42.9789 19.107 42.6682 19.9496L44.9011 20.773ZM45.593 19.9465C45.9514 19.7153 46.3579 19.5934 46.8464 19.5934V17.2136C45.9265 17.2136 45.0675 17.4536 44.3032 17.9465L45.593 19.9465ZM46.8464 19.5934C46.9652 19.5934 47.1201 19.5957 47.3134 19.6007L47.3744 17.2216C47.1697 17.2164 46.9929 17.2136 46.8464 17.2136V19.5934ZM47.3134 19.6007C47.5049 19.6056 47.6201 19.6124 47.6772 19.6181L47.9138 17.2501C47.7669 17.2354 47.5809 17.2269 47.3744 17.2216L47.3134 19.6007ZM46.6056 18.4341V20.2695H48.9854V18.4341H46.6056ZM48.0839 19.1151C47.9488 19.0814 47.7405 19.0503 47.5388 19.0222L47.2102 21.3792C47.3152 21.3938 47.395 21.4058 47.4523 21.4152C47.481 21.4199 47.5006 21.4233 47.513 21.4257C47.5277 21.4285 47.5231 21.428 47.5072 21.424L48.0839 19.1151ZM47.57 19.027C47.2848 18.9795 46.9919 18.9573 46.6933 18.9573V21.3371C46.8743 21.3371 47.0356 21.3506 47.1791 21.3745L47.57 19.027ZM46.6933 18.9573C45.9507 18.9573 45.244 19.1144 44.6022 19.4568L45.7226 21.5564C45.979 21.4196 46.2928 21.3371 46.6933 21.3371V18.9573ZM44.6066 19.4545C43.9802 19.7854 43.4698 20.2562 43.096 20.8567L45.1163 22.1143C45.263 21.8787 45.4567 21.6969 45.7182 21.5587L44.6066 19.4545ZM43.0938 20.8601C42.712 21.4782 42.5335 22.1703 42.5335 22.9004H44.9133C44.9133 22.5699 44.99 22.3188 45.1184 22.1109L43.0938 20.8601ZM42.5335 22.9004V30.3339H44.9133V22.9004H42.5335ZM43.7234 29.144H41.917V31.5238H43.7234V29.144ZM51.4581 33.5491C51.2155 33.5491 51.0279 33.5287 50.8865 33.4986L50.3917 35.8264C50.73 35.8983 51.0883 35.9289 51.4581 35.9289V33.5491ZM50.8627 33.4938C50.7624 33.4746 50.6943 33.4586 50.6521 33.4469C50.6316 33.4412 50.6229 33.4381 50.6235 33.4383C50.6241 33.4386 50.6286 33.4402 50.6363 33.4434C50.6439 33.4465 50.6567 33.4521 50.6733 33.4604L49.6098 35.5893C49.8632 35.716 50.1751 35.7852 50.4155 35.8312L50.8627 33.4938ZM51.2848 34.8549L51.744 33.2642L49.4576 32.6041L48.9983 34.1948L51.2848 34.8549ZM50.3062 34.087C50.8345 34.222 51.363 34.2878 51.8719 34.2415L51.6566 31.8715C51.4919 31.8865 51.2448 31.8706 50.8955 31.7813L50.3062 34.087ZM51.8719 34.2415C52.5253 34.1822 53.0815 33.8828 53.5169 33.4307L51.8028 31.7799C51.7177 31.8682 51.6768 31.8697 51.6566 31.8715L51.8719 34.2415ZM53.5008 33.447C53.945 33.0033 54.2606 32.3846 54.5037 31.7236L52.2702 30.9021C52.0745 31.4341 51.9054 31.6771 51.8188 31.7635L53.5008 33.447ZM54.504 31.7228L54.8408 30.8051L52.6067 29.9852L52.2699 30.9029L54.504 31.7228ZM54.8404 29.984L50.4927 18.1759L48.2595 18.9982L52.6071 30.8062L54.8404 29.984ZM49.3761 19.7769H51.3356V17.3971H49.3761V19.7769ZM50.2114 18.9768L53.4568 28.3376L55.7053 27.5581L52.4599 18.1973L50.2114 18.9768ZM54.581 29.1377H54.7035V26.7579H54.581V29.1377ZM55.8278 28.3376L59.0732 18.9768L56.8247 18.1973L53.5793 27.5581L55.8278 28.3376ZM57.9489 19.7769H59.9084V17.3971H57.9489V19.7769ZM58.7928 18.1734L53.8022 31.6334L56.0335 32.4607L61.0241 19.0007L58.7928 18.1734ZM53.8019 31.634C53.6131 32.1441 53.3961 32.5201 53.1697 32.7915L54.9973 34.3158C55.4343 33.7918 55.7735 33.1634 56.0338 32.46L53.8019 31.634ZM53.165 32.7972C52.9408 33.0694 52.7015 33.2476 52.4471 33.3599L53.4083 35.5369C54.0316 35.2618 54.5629 34.8434 55.0021 34.31L53.165 32.7972ZM52.4424 33.362C52.1826 33.478 51.8617 33.5491 51.4581 33.5491V35.9289C52.1465 35.9289 52.8054 35.8063 53.413 35.5348L52.4424 33.362ZM69.5449 30.3339V18.587H67.1651V30.3339H69.5449ZM68.355 19.7769H70.1614V17.3971H68.355V19.7769ZM68.9715 18.587V30.3339H71.3513V18.587H68.9715ZM70.1614 29.144H68.355V31.5238H70.1614V29.144ZM69.2735 15.4393C69.2351 15.4393 69.2206 15.4334 69.2185 15.4325C69.2165 15.4317 69.2031 15.4268 69.1772 15.4024L67.548 17.1371C68.0252 17.5853 68.6207 17.8191 69.2735 17.8191V15.4393ZM69.1859 15.4107C69.1738 15.399 69.169 15.3924 69.1684 15.3916C69.168 15.391 69.1702 15.3941 69.1729 15.4003C69.1756 15.4065 69.1771 15.4121 69.1777 15.4153C69.1784 15.4184 69.1775 15.4157 69.1775 15.4056H66.7976C66.7976 16.077 67.0628 16.6722 67.5393 17.1289L69.1859 15.4107ZM69.1775 15.4056C69.1775 15.3955 69.1784 15.3928 69.1777 15.3959C69.1771 15.3991 69.1756 15.4047 69.1729 15.4109C69.1702 15.4171 69.168 15.4202 69.1684 15.4196C69.169 15.4187 69.1738 15.4121 69.1859 15.4005L67.5393 13.6823C67.0628 14.139 66.7976 14.7342 66.7976 15.4056H69.1775ZM69.1772 15.4088C69.2031 15.3844 69.2165 15.3795 69.2185 15.3787C69.2206 15.3778 69.2351 15.3719 69.2735 15.3719V12.9921C68.6207 12.9921 68.0252 13.2259 67.548 13.6741L69.1772 15.4088ZM69.2735 15.3719C69.2938 15.3719 69.3066 15.3736 69.3133 15.3748C69.3198 15.376 69.3227 15.3771 69.3234 15.3774C69.3241 15.3777 69.3259 15.3784 69.3295 15.3808C69.3334 15.3833 69.3414 15.389 69.3534 15.4005L71 13.6823C70.5243 13.2265 69.9267 12.9921 69.2735 12.9921V15.3719ZM69.3621 15.4088C69.3751 15.421 69.3803 15.4279 69.3809 15.4288C69.3813 15.4294 69.3788 15.426 69.3757 15.419C69.3726 15.4119 69.3706 15.4052 69.3696 15.4004C69.3687 15.3959 69.3695 15.397 69.3695 15.4056H71.7493C71.7493 14.726 71.4751 14.1284 70.9913 13.6741L69.3621 15.4088ZM69.3695 15.4056C69.3695 15.4142 69.3687 15.4153 69.3696 15.4108C69.3706 15.406 69.3726 15.3993 69.3757 15.3922C69.3788 15.3852 69.3813 15.3818 69.3809 15.3824C69.3803 15.3832 69.3751 15.3902 69.3621 15.4024L70.9913 17.1371C71.475 16.6828 71.7493 16.0852 71.7493 15.4056H69.3695ZM69.3534 15.4107C69.3414 15.4221 69.3334 15.4279 69.3295 15.4304C69.3259 15.4328 69.3241 15.4335 69.3234 15.4338C69.3227 15.4341 69.3198 15.4352 69.3133 15.4364C69.3066 15.4376 69.2938 15.4393 69.2735 15.4393V17.8191C69.9267 17.8191 70.5244 17.5847 71 17.1289L69.3534 15.4107ZM77.3931 18.587V20.1166H79.7729V18.587H77.3931ZM78.583 18.9267H72.4902V21.3065H78.583V18.9267ZM73.6801 20.1166V18.587H71.3003V20.1166H73.6801ZM72.4902 19.7769H78.583V17.3971H72.4902V19.7769ZM74.266 16.9626H76.0724V14.5828H74.266V16.9626ZM74.8825 15.7727V26.9689H77.2623V15.7727H74.8825ZM74.8825 26.9689C74.8825 27.5549 74.9607 28.1887 75.2653 28.7135L77.3235 27.5187C77.3339 27.5367 77.3155 27.5121 77.2961 27.4121C77.2772 27.3141 77.2623 27.1698 77.2623 26.9689H74.8825ZM75.2798 28.7378C75.5476 29.1748 75.9373 29.5426 76.4639 29.7371L77.2883 27.5046C77.2974 27.508 77.3069 27.5125 77.3159 27.5178C77.3249 27.5232 77.3311 27.528 77.3344 27.5309C77.3414 27.5369 77.3307 27.5299 77.309 27.4944L75.2798 28.7378ZM76.4929 29.7474C76.8619 29.8729 77.2444 29.9331 77.6339 29.9331V27.5533C77.4926 27.5533 77.3699 27.532 77.2593 27.4943L76.4929 29.7474ZM77.6339 29.9331C77.8661 29.9331 78.0982 29.9217 78.3116 29.8876L77.9359 27.5376C77.8942 27.5443 77.7997 27.5533 77.6339 27.5533V29.9331ZM78.3569 29.8795C78.4845 29.854 78.5865 29.8336 78.6631 29.8183L78.1968 27.4846C78.1202 27.4999 78.0182 27.5203 77.8906 27.5458L78.3569 29.8795ZM77.2694 28.9144L77.6369 30.5357L79.9578 30.0098L79.5904 28.3885L77.2694 28.9144ZM78.3798 29.1585C78.34 29.1734 78.2366 29.2048 78.0409 29.2457L78.5281 31.5751C78.7713 31.5243 79.0098 31.4638 79.2148 31.387L78.3798 29.1585ZM78.0152 29.2514C77.9159 29.2744 77.7362 29.297 77.4502 29.297V31.6768C77.8377 31.6768 78.2142 31.6483 78.5538 31.5694L78.0152 29.2514ZM77.4502 29.297C77.116 29.297 76.781 29.2263 76.436 29.0719L75.4639 31.2441C76.0986 31.5282 76.7637 31.6768 77.4502 31.6768V29.297ZM76.4402 29.0738C76.1534 28.9441 75.9122 28.7484 75.7078 28.4631L73.7733 29.8492C74.2119 30.4613 74.7769 30.9335 75.4596 31.2422L76.4402 29.0738ZM75.713 28.4705C75.5694 28.2669 75.4559 27.9566 75.4559 27.4584H73.0761C73.0761 28.3265 73.2789 29.1482 73.7681 29.8419L75.713 28.4705ZM75.4559 27.4584V15.7727H73.0761V27.4584H75.4559ZM92.1388 29.3888C91.2739 29.3888 90.5681 29.1858 89.9792 28.8148L88.7107 30.8283C89.7241 31.4668 90.8809 31.7686 92.1388 31.7686V29.3888ZM89.9821 28.8166C89.3839 28.4373 88.9036 27.9026 88.5438 27.1754L86.4108 28.2308C86.9491 29.3187 87.7139 30.1963 88.7078 30.8265L89.9821 28.8166ZM88.5462 27.1802C88.1963 26.465 88.0013 25.5899 88.0013 24.5217H85.6215C85.6215 25.8803 85.8704 27.1261 86.4084 28.226L88.5462 27.1802ZM88.0013 24.5217C88.0013 23.4418 88.1968 22.5583 88.5473 21.8378L86.4073 20.7968C85.8699 21.9015 85.6215 23.1543 85.6215 24.5217H88.0013ZM88.545 21.8426C88.9053 21.1103 89.3856 20.5744 89.9821 20.1961L88.7078 18.1863C87.7122 18.8175 86.9474 19.699 86.4096 20.7919L88.545 21.8426ZM89.9792 20.198C90.5681 19.827 91.2739 19.624 92.1388 19.624V17.2442C90.8809 17.2442 89.7241 17.546 88.7107 18.1845L89.9792 20.198ZM92.1388 19.624C93.0038 19.624 93.7056 19.827 94.2878 20.1961L95.5621 18.1863C94.5522 17.5459 93.3965 17.2442 92.1388 17.2442V19.624ZM94.2907 20.198C94.8905 20.5759 95.3684 21.1098 95.7226 21.8378L97.8626 20.7968C97.3289 19.6995 96.5617 18.816 95.5592 18.1845L94.2907 20.198ZM95.7249 21.8426C96.0789 22.5619 96.2763 23.4437 96.2763 24.5217H98.6561C98.6561 23.1524 98.4044 21.8979 97.8602 20.7919L95.7249 21.8426ZM96.2763 24.5217C96.2763 25.588 96.0794 26.4614 95.7261 27.1754L97.8591 28.2308C98.4039 27.1298 98.6561 25.8822 98.6561 24.5217H96.2763ZM95.7237 27.1802C95.3701 27.9031 94.8922 28.4358 94.2907 28.8148L95.5592 30.8283C96.56 30.1978 97.3272 29.3182 97.8615 28.226L95.7237 27.1802ZM94.2878 28.8166C93.7056 29.1858 93.0038 29.3888 92.1388 29.3888V31.7686C93.3965 31.7686 94.5522 31.4668 95.5621 30.8265L94.2878 28.8166ZM92.1388 30.1472C93.1544 30.1472 94.0955 29.8833 94.8685 29.27L93.3893 27.4057C93.1213 27.6184 92.7356 27.7674 92.1388 27.7674V30.1472ZM94.8685 29.27C95.5728 28.7112 96.0807 27.983 96.4001 27.1233L94.1693 26.2945C93.9886 26.7809 93.7259 27.1386 93.3893 27.4057L94.8685 29.27ZM96.4001 27.1233C96.7038 26.3058 96.8497 25.4351 96.8497 24.5217H94.4699C94.4699 25.1786 94.3656 25.766 94.1693 26.2945L96.4001 27.1233ZM96.8497 24.5217C96.8497 23.6082 96.7038 22.7359 96.4011 21.9151L94.1683 22.7384C94.3657 23.2738 94.4699 23.8648 94.4699 24.5217H96.8497ZM96.4011 21.9151C96.0828 21.0518 95.5766 20.3192 94.874 19.7548L93.3837 21.6102C93.7221 21.882 93.9865 22.2455 94.1683 22.7384L96.4011 21.9151ZM94.874 19.7548C94.1009 19.1338 93.1578 18.8655 92.1388 18.8655V21.2453C92.7323 21.2453 93.1159 21.395 93.3837 21.6102L94.874 19.7548ZM92.1388 18.8655C91.1198 18.8655 90.1766 19.1338 89.4035 19.7548L90.8938 21.6102C91.1617 21.3951 91.5453 21.2453 92.1388 21.2453V18.8655ZM89.4035 19.7548C88.7009 20.3192 88.1948 21.0518 87.8764 21.9151L90.1093 22.7384C90.291 22.2455 90.5554 21.882 90.8938 21.6102L89.4035 19.7548ZM87.8764 21.9151C87.5738 22.736 87.4279 23.6082 87.4279 24.5217H89.8077C89.8077 23.8648 89.9119 23.2738 90.1093 22.7384L87.8764 21.9151ZM87.4279 24.5217C87.4279 25.4351 87.5737 26.3058 87.8775 27.1233L90.1083 26.2945C89.9119 25.766 89.8077 25.1786 89.8077 24.5217H87.4279ZM87.8775 27.1233C88.1968 27.983 88.7047 28.7112 89.4091 29.27L90.8882 27.4057C90.5516 27.1386 90.289 26.7809 90.1083 26.2945L87.8775 27.1233ZM89.4091 29.27C90.182 29.8833 91.1231 30.1472 92.1388 30.1472V27.7674C91.5419 27.7674 91.1563 27.6184 90.8882 27.4057L89.4091 29.27ZM108.823 25.5312V18.587H106.443V25.5312H108.823ZM107.633 19.7769H109.439V17.3971H107.633V19.7769ZM108.249 18.587V30.3339H110.629V18.587H108.249ZM109.439 29.144H107.633V31.5238H109.439V29.144ZM108.823 30.3339V28.3455H106.443V30.3339H108.823ZM107.633 27.1556H107.511V29.5354H107.633V27.1556ZM106.43 27.8465C106.249 28.2401 105.961 28.5918 105.53 28.9012L106.919 30.8337C107.652 30.3069 108.221 29.644 108.591 28.8445L106.43 27.8465ZM105.536 28.8972C105.2 29.1356 104.722 29.297 104.02 29.297V31.6768C105.094 31.6768 106.086 31.4252 106.913 30.8377L105.536 28.8972ZM104.02 29.297C103.464 29.297 103.016 29.1773 102.644 28.9678L101.478 31.0424C102.248 31.4753 103.106 31.6768 104.02 31.6768V29.297ZM102.651 28.9717C102.305 28.7744 102.011 28.4705 101.778 28.0042L99.6494 29.0692C100.069 29.9081 100.673 30.5831 101.471 31.0384L102.651 28.9717ZM101.779 28.0075C101.558 27.5626 101.414 26.9298 101.414 26.0512H99.0337C99.0337 27.1713 99.2155 28.1954 99.6478 29.0659L101.779 28.0075ZM101.414 26.0512V18.587H99.0337V26.0512H101.414ZM100.224 19.7769H102.03V17.3971H100.224V19.7769ZM100.84 18.587V25.9288H103.22V18.587H100.84ZM100.84 25.9288C100.84 27.017 101.151 28.0162 101.883 28.7938L103.616 27.1631C103.388 26.921 103.22 26.5538 103.22 25.9288H100.84ZM101.887 28.7983C102.613 29.5614 103.55 29.9331 104.602 29.9331V27.5533C104.154 27.5533 103.856 27.4152 103.612 27.1585L101.887 28.7983ZM104.602 29.9331C105.26 29.9331 105.896 29.7638 106.499 29.4659L105.445 27.3323C105.119 27.4931 104.842 27.5533 104.602 27.5533V29.9331ZM106.494 29.4681C107.17 29.1379 107.718 28.637 108.141 28.0041L106.161 26.6832C105.951 26.9986 105.713 27.2013 105.45 27.33L106.494 29.4681ZM108.136 28.0114C108.624 27.2914 108.823 26.4367 108.823 25.5312H106.443C106.443 26.094 106.321 26.4476 106.166 26.6759L108.136 28.0114ZM116.671 18.587V20.1166H119.051V18.587H116.671ZM117.861 18.9267H111.768V21.3065H117.861V18.9267ZM112.958 20.1166V18.587H110.578V20.1166H112.958ZM111.768 19.7769H117.861V17.3971H111.768V19.7769ZM113.544 16.9626H115.35V14.5828H113.544V16.9626ZM114.161 15.7727V26.9689H116.54V15.7727H114.161ZM114.161 26.9689C114.161 27.5549 114.239 28.1887 114.543 28.7135L116.601 27.5187C116.612 27.5367 116.594 27.5121 116.574 27.4121C116.555 27.3141 116.54 27.1698 116.54 26.9689H114.161ZM114.558 28.7378C114.826 29.1748 115.215 29.5426 115.742 29.7371L116.566 27.5046C116.575 27.508 116.585 27.5125 116.594 27.5178C116.603 27.5232 116.609 27.528 116.612 27.5309C116.619 27.5369 116.609 27.5299 116.587 27.4944L114.558 28.7378ZM115.771 29.7474C116.14 29.8729 116.522 29.9331 116.912 29.9331V27.5533C116.771 27.5533 116.648 27.532 116.537 27.4943L115.771 29.7474ZM116.912 29.9331C117.144 29.9331 117.376 29.9217 117.59 29.8876L117.214 27.5376C117.172 27.5443 117.078 27.5533 116.912 27.5533V29.9331ZM117.635 29.8795C117.763 29.854 117.865 29.8336 117.941 29.8183L117.475 27.4846C117.398 27.4999 117.296 27.5203 117.169 27.5458L117.635 29.8795ZM116.547 28.9144L116.915 30.5357L119.236 30.0098L118.868 28.3885L116.547 28.9144ZM117.658 29.1585C117.618 29.1734 117.515 29.2048 117.319 29.2457L117.806 31.5751C118.049 31.5243 118.288 31.4638 118.493 31.387L117.658 29.1585ZM117.293 29.2514C117.194 29.2744 117.014 29.297 116.728 29.297V31.6768C117.116 31.6768 117.492 31.6483 117.832 31.5694L117.293 29.2514ZM116.728 29.297C116.394 29.297 116.059 29.2264 115.714 29.0719L114.742 31.2441C115.377 31.5282 116.042 31.6768 116.728 31.6768V29.297ZM115.718 29.0738C115.431 28.9441 115.19 28.7484 114.986 28.4631L113.051 29.8492C113.49 30.4613 114.055 30.9335 114.738 31.2422L115.718 29.0738ZM114.991 28.4705C114.847 28.2668 114.734 27.9566 114.734 27.4584H112.354C112.354 28.3265 112.557 29.1482 113.046 29.8419L114.991 28.4705ZM114.734 27.4584V15.7727H112.354V27.4584H114.734ZM133.566 31.8668L144.633 20.8096L142.951 19.1261L131.884 30.1832L133.566 31.8668ZM143.792 18.778H134.8V21.1578H143.792V18.778ZM142.602 19.9679V28.5679H144.982V19.9679H142.602Z" fill="#38B854"/>
</svg>
